<mxfile host="Electron" modified="2024-05-14T23:00:41.130Z" agent="Mozilla/5.0 (X11; Linux x86_64) AppleWebKit/537.36 (KHTML, like Gecko) draw.io/24.2.5 Chrome/120.0.6099.109 Electron/28.1.0 Safari/537.36" etag="tykN2ahjM8p46kEnkJiG" version="24.2.5" type="device">
  <diagram name="Page-1" id="7Iyx7OdFPjunM9rR7IhZ">
    <mxGraphModel dx="1374" dy="963" grid="1" gridSize="10" guides="1" tooltips="1" connect="1" arrows="1" fold="1" page="1" pageScale="1" pageWidth="850" pageHeight="550" math="0" shadow="0">
      <root>
        <mxCell id="0" />
        <mxCell id="1" parent="0" />
        <mxCell id="5G7XgCikOIznapov901W-1" value="Owner" style="rounded=0;whiteSpace=wrap;html=1;strokeWidth=2;fontFamily=Helvetica;fontSize=16;" parent="1" vertex="1">
          <mxGeometry x="10" y="10" width="110" height="40" as="geometry" />
        </mxCell>
        <mxCell id="5G7XgCikOIznapov901W-2" value="Heir 1" style="rounded=0;whiteSpace=wrap;html=1;strokeWidth=2;fontFamily=Helvetica;fontSize=16;" parent="1" vertex="1">
          <mxGeometry x="130" y="10" width="110" height="40" as="geometry" />
        </mxCell>
        <mxCell id="5G7XgCikOIznapov901W-3" value="Heir 2" style="rounded=0;whiteSpace=wrap;html=1;strokeWidth=2;fontFamily=Helvetica;fontSize=16;" parent="1" vertex="1">
          <mxGeometry x="249.5" y="10" width="110" height="40" as="geometry" />
        </mxCell>
        <mxCell id="5G7XgCikOIznapov901W-4" value="Guardian 1" style="rounded=0;whiteSpace=wrap;html=1;strokeWidth=2;fontFamily=Helvetica;fontSize=16;" parent="1" vertex="1">
          <mxGeometry x="370" y="10" width="110.5" height="40" as="geometry" />
        </mxCell>
        <mxCell id="5G7XgCikOIznapov901W-5" value="Guardian 2" style="rounded=0;whiteSpace=wrap;html=1;strokeWidth=2;fontFamily=Helvetica;fontSize=16;" parent="1" vertex="1">
          <mxGeometry x="490" y="10" width="110" height="40" as="geometry" />
        </mxCell>
        <mxCell id="5G7XgCikOIznapov901W-6" value="Guardian 3" style="rounded=0;whiteSpace=wrap;html=1;strokeWidth=2;fontFamily=Helvetica;fontSize=16;" parent="1" vertex="1">
          <mxGeometry x="610" y="10" width="110" height="40" as="geometry" />
        </mxCell>
        <mxCell id="5G7XgCikOIznapov901W-7" value="Guardian 4" style="rounded=0;whiteSpace=wrap;html=1;strokeWidth=2;fontFamily=Helvetica;fontSize=16;" parent="1" vertex="1">
          <mxGeometry x="730" y="10" width="110" height="40" as="geometry" />
        </mxCell>
        <mxCell id="5G7XgCikOIznapov901W-8" value="&lt;p style=&quot;line-height: 100%;&quot;&gt;&lt;font style=&quot;font-size: 12px;&quot; color=&quot;#ffffff&quot;&gt;&lt;b style=&quot;font-size: 12px;&quot;&gt;SEED 1&lt;/b&gt;&lt;br style=&quot;font-size: 12px;&quot;&gt;Items Description&lt;br&gt;&lt;/font&gt;&lt;span style=&quot;background-color: initial; color: rgb(255, 255, 255);&quot;&gt;Paper backup&lt;br&gt;&lt;/span&gt;&lt;span style=&quot;background-color: initial; color: rgb(255, 255, 255);&quot;&gt;Metal backup&lt;br&gt;&lt;/span&gt;&lt;span style=&quot;background-color: initial; color: rgb(255, 255, 255);&quot;&gt;QR backup&lt;/span&gt;&lt;/p&gt;&lt;p&gt;&lt;/p&gt;" style="rounded=0;html=1;fillColor=#4F4F4F;fontColor=#333333;strokeColor=#000000;strokeWidth=2;horizontal=1;fontFamily=Helvetica;fontSize=12;whiteSpace=wrap;" parent="1" vertex="1">
          <mxGeometry x="10" y="60" width="110" height="70" as="geometry" />
        </mxCell>
        <mxCell id="5G7XgCikOIznapov901W-14" value="&lt;font style=&quot;font-size: 12px;&quot; color=&quot;#ffffff&quot;&gt;&lt;b style=&quot;font-size: 12px;&quot;&gt;&lt;font style=&quot;font-size: 12px;&quot;&gt;PASSPHRASE&lt;/font&gt;&lt;/b&gt;&lt;br style=&quot;font-size: 12px;&quot;&gt;&lt;/font&gt;&lt;font style=&quot;font-size: 12px;&quot; color=&quot;#ffffff&quot;&gt;Items Description&lt;br style=&quot;font-size: 12px;&quot;&gt;&lt;/font&gt;&lt;div style=&quot;color: rgb(51, 51, 51); font-size: 12px; line-height: 100%;&quot;&gt;&lt;/div&gt;&lt;div style=&quot;font-size: 12px; line-height: 100%;&quot;&gt;&lt;div style=&quot;font-size: 12px; line-height: 100%;&quot;&gt;&lt;span style=&quot;color: rgb(255, 255, 255); background-color: initial; font-size: 12px;&quot;&gt;&lt;font style=&quot;font-size: 12px;&quot;&gt;Paper backup&lt;/font&gt;&lt;/span&gt;&lt;/div&gt;&lt;font color=&quot;#ffffff&quot; style=&quot;font-size: 12px;&quot;&gt;&lt;div style=&quot;font-size: 12px; line-height: 100%;&quot;&gt;&lt;span style=&quot;background-color: initial; font-size: 12px;&quot;&gt;Metal Backup&lt;/span&gt;&lt;/div&gt;&lt;/font&gt;&lt;/div&gt;" style="rounded=0;html=1;fillColor=#CC0000;strokeColor=default;strokeWidth=2;fontFamily=Helvetica;fontSize=12;whiteSpace=wrap;" parent="1" vertex="1">
          <mxGeometry x="10" y="140" width="110" height="60" as="geometry" />
        </mxCell>
        <mxCell id="5G7XgCikOIznapov901W-17" value="&lt;p style=&quot;line-height: 100%;&quot;&gt;&lt;font style=&quot;font-size: 12px;&quot;&gt;&lt;b style=&quot;font-size: 12px;&quot;&gt;WALLET DESCRIPTOR&lt;/b&gt;&lt;br style=&quot;font-size: 12px;&quot;&gt;&lt;font style=&quot;font-size: 12px;&quot;&gt;Items Description&lt;br style=&quot;font-size: 12px;&quot;&gt;&lt;/font&gt;&lt;font style=&quot;font-size: 12px;&quot;&gt;QR backup&lt;/font&gt;&lt;/font&gt;&lt;/p&gt;" style="rounded=0;html=1;fillColor=#FFB366;strokeColor=#000000;strokeWidth=2;fontColor=default;fontFamily=Helvetica;fontSize=12;whiteSpace=wrap;" parent="1" vertex="1">
          <mxGeometry x="10" y="210" width="110" height="60" as="geometry" />
        </mxCell>
        <mxCell id="5G7XgCikOIznapov901W-20" value="&lt;font style=&quot;font-size: 12px;&quot; color=&quot;#ffffff&quot;&gt;&lt;b style=&quot;font-size: 12px;&quot;&gt;SEED 2&lt;/b&gt;&lt;br style=&quot;font-size: 12px;&quot;&gt;&lt;/font&gt;&lt;font style=&quot;font-size: 12px;&quot; color=&quot;#ffffff&quot;&gt;Items Description&lt;br style=&quot;font-size: 12px;&quot;&gt;&lt;/font&gt;&lt;div style=&quot;font-size: 12px; line-height: 100%;&quot;&gt;&lt;/div&gt;&lt;div style=&quot;font-size: 12px; line-height: 100%;&quot;&gt;&lt;div style=&quot;font-size: 12px; line-height: 100%;&quot;&gt;&lt;span style=&quot;color: rgb(255, 255, 255); background-color: initial; font-size: 12px;&quot;&gt;&lt;font style=&quot;font-size: 12px;&quot;&gt;Paper backup&lt;/font&gt;&lt;/span&gt;&lt;/div&gt;&lt;font color=&quot;#ffffff&quot; style=&quot;font-size: 12px;&quot;&gt;&lt;div style=&quot;font-size: 12px; line-height: 100%;&quot;&gt;&lt;div style=&quot;font-size: 12px; line-height: 100%;&quot;&gt;&lt;span style=&quot;background-color: initial; font-size: 12px;&quot;&gt;Metal backup&lt;/span&gt;&lt;/div&gt;&lt;span style=&quot;background-color: initial; font-size: 12px;&quot;&gt;&lt;div style=&quot;font-size: 12px; line-height: 100%;&quot;&gt;&lt;span style=&quot;background-color: initial; font-size: 12px;&quot;&gt;QR backup&lt;/span&gt;&lt;/div&gt;&lt;/span&gt;&lt;/div&gt;&lt;/font&gt;&lt;/div&gt;" style="rounded=0;html=1;fillColor=#4F4F4F;fontColor=#333333;strokeColor=#000000;strokeWidth=2;horizontal=1;fontFamily=Helvetica;fontSize=12;whiteSpace=wrap;" parent="1" vertex="1">
          <mxGeometry x="370" y="60" width="110" height="70" as="geometry" />
        </mxCell>
        <mxCell id="5G7XgCikOIznapov901W-21" value="&lt;font style=&quot;font-size: 12px;&quot; color=&quot;#ffffff&quot;&gt;&lt;b style=&quot;font-size: 12px;&quot;&gt;SEED 3&lt;/b&gt;&lt;br style=&quot;font-size: 12px;&quot;&gt;&lt;/font&gt;&lt;font style=&quot;font-size: 12px;&quot; color=&quot;#ffffff&quot;&gt;Items Description&lt;br style=&quot;font-size: 12px;&quot;&gt;&lt;/font&gt;&lt;div style=&quot;font-size: 12px; line-height: 100%;&quot;&gt;&lt;/div&gt;&lt;div style=&quot;font-size: 12px; line-height: 100%;&quot;&gt;&lt;div style=&quot;font-size: 12px; line-height: 100%;&quot;&gt;&lt;span style=&quot;color: rgb(255, 255, 255); background-color: initial; font-size: 12px;&quot;&gt;&lt;font style=&quot;font-size: 12px;&quot;&gt;Paper backup&lt;/font&gt;&lt;/span&gt;&lt;/div&gt;&lt;font color=&quot;#ffffff&quot; style=&quot;font-size: 12px;&quot;&gt;&lt;div style=&quot;font-size: 12px; line-height: 100%;&quot;&gt;&lt;div style=&quot;font-size: 12px; line-height: 100%;&quot;&gt;&lt;span style=&quot;background-color: initial; font-size: 12px;&quot;&gt;Metal backup&lt;/span&gt;&lt;/div&gt;&lt;span style=&quot;background-color: initial; font-size: 12px;&quot;&gt;&lt;div style=&quot;font-size: 12px; line-height: 100%;&quot;&gt;&lt;span style=&quot;background-color: initial; font-size: 12px;&quot;&gt;QR backup&lt;/span&gt;&lt;/div&gt;&lt;/span&gt;&lt;/div&gt;&lt;/font&gt;&lt;/div&gt;" style="rounded=0;html=1;fillColor=#4F4F4F;fontColor=#333333;strokeColor=#000000;strokeWidth=2;horizontal=1;fontFamily=Helvetica;fontSize=12;whiteSpace=wrap;" parent="1" vertex="1">
          <mxGeometry x="490" y="60" width="110" height="70" as="geometry" />
        </mxCell>
        <mxCell id="5G7XgCikOIznapov901W-22" value="&lt;font style=&quot;font-size: 12px;&quot; color=&quot;#ffffff&quot;&gt;&lt;b style=&quot;font-size: 12px;&quot;&gt;SEED 4&lt;/b&gt;&lt;br style=&quot;font-size: 12px;&quot;&gt;&lt;/font&gt;&lt;font style=&quot;font-size: 12px;&quot; color=&quot;#ffffff&quot;&gt;Items Description&lt;br style=&quot;font-size: 12px;&quot;&gt;&lt;/font&gt;&lt;div style=&quot;font-size: 12px; line-height: 100%;&quot;&gt;&lt;/div&gt;&lt;div style=&quot;font-size: 12px; line-height: 100%;&quot;&gt;&lt;div style=&quot;font-size: 12px; line-height: 100%;&quot;&gt;&lt;span style=&quot;color: rgb(255, 255, 255); background-color: initial; font-size: 12px;&quot;&gt;&lt;font style=&quot;font-size: 12px;&quot;&gt;Paper backup&lt;/font&gt;&lt;/span&gt;&lt;/div&gt;&lt;font color=&quot;#ffffff&quot; style=&quot;font-size: 12px;&quot;&gt;&lt;div style=&quot;font-size: 12px; line-height: 100%;&quot;&gt;&lt;div style=&quot;font-size: 12px; line-height: 100%;&quot;&gt;&lt;span style=&quot;background-color: initial; font-size: 12px;&quot;&gt;Metal backup&lt;/span&gt;&lt;/div&gt;&lt;span style=&quot;background-color: initial; font-size: 12px;&quot;&gt;&lt;div style=&quot;font-size: 12px; line-height: 100%;&quot;&gt;&lt;span style=&quot;background-color: initial; font-size: 12px;&quot;&gt;QR backup&lt;/span&gt;&lt;/div&gt;&lt;/span&gt;&lt;/div&gt;&lt;/font&gt;&lt;/div&gt;" style="rounded=0;html=1;fillColor=#4F4F4F;fontColor=#333333;strokeColor=#000000;strokeWidth=2;horizontal=1;fontFamily=Helvetica;fontSize=12;whiteSpace=wrap;" parent="1" vertex="1">
          <mxGeometry x="610" y="60" width="110" height="70" as="geometry" />
        </mxCell>
        <mxCell id="5G7XgCikOIznapov901W-23" value="&lt;font style=&quot;font-size: 12px;&quot; color=&quot;#ffffff&quot;&gt;&lt;b style=&quot;font-size: 12px;&quot;&gt;SEED 5&lt;/b&gt;&lt;br style=&quot;font-size: 12px;&quot;&gt;&lt;/font&gt;&lt;font style=&quot;font-size: 12px;&quot; color=&quot;#ffffff&quot;&gt;Items Description&lt;br style=&quot;font-size: 12px;&quot;&gt;&lt;/font&gt;&lt;div style=&quot;font-size: 12px; line-height: 100%;&quot;&gt;&lt;/div&gt;&lt;div style=&quot;font-size: 12px; line-height: 100%;&quot;&gt;&lt;div style=&quot;font-size: 12px; line-height: 100%;&quot;&gt;&lt;span style=&quot;color: rgb(255, 255, 255); background-color: initial; font-size: 12px;&quot;&gt;&lt;font style=&quot;font-size: 12px;&quot;&gt;Paper backup&lt;/font&gt;&lt;/span&gt;&lt;/div&gt;&lt;font style=&quot;font-size: 12px;&quot; color=&quot;#ffffff&quot;&gt;&lt;div style=&quot;font-size: 12px; line-height: 100%;&quot;&gt;&lt;div style=&quot;font-size: 12px; line-height: 100%;&quot;&gt;&lt;span style=&quot;background-color: initial; font-size: 12px;&quot;&gt;Metal backup&lt;/span&gt;&lt;/div&gt;&lt;span style=&quot;background-color: initial; font-size: 12px;&quot;&gt;&lt;div style=&quot;font-size: 12px; line-height: 100%;&quot;&gt;&lt;span style=&quot;background-color: initial; font-size: 12px;&quot;&gt;QR backup&lt;/span&gt;&lt;/div&gt;&lt;/span&gt;&lt;/div&gt;&lt;/font&gt;&lt;/div&gt;" style="rounded=0;html=1;fillColor=#4F4F4F;fontColor=#333333;strokeColor=#000000;strokeWidth=2;horizontal=1;fontFamily=Helvetica;fontSize=12;whiteSpace=wrap;" parent="1" vertex="1">
          <mxGeometry x="730" y="60" width="110" height="70" as="geometry" />
        </mxCell>
        <mxCell id="5G7XgCikOIznapov901W-52" value="&lt;span style=&quot;font-size: 12px;&quot;&gt;&lt;b&gt;SIGNING DEVICE&lt;/b&gt;&lt;br&gt;Items Description&lt;/span&gt;&lt;div&gt;Seedsigner&lt;/div&gt;&lt;div&gt;Micro SD Card&lt;/div&gt;&lt;div&gt;Micro USB cable&lt;/div&gt;" style="rounded=0;html=1;fillColor=#CC99FF;strokeColor=#000000;strokeWidth=2;fontFamily=Helvetica;fontSize=12;whiteSpace=wrap;" parent="1" vertex="1">
          <mxGeometry x="10" y="460" width="110" height="80" as="geometry" />
        </mxCell>
        <mxCell id="5G7XgCikOIznapov901W-54" value="&lt;p style=&quot;line-height: 100%;&quot;&gt;&lt;font style=&quot;font-size: 12px;&quot;&gt;&lt;b style=&quot;font-size: 12px;&quot;&gt;WALLET DESCRIPTOR&lt;/b&gt;&lt;br style=&quot;font-size: 12px;&quot;&gt;&lt;font style=&quot;font-size: 12px;&quot;&gt;Items Description&lt;br style=&quot;font-size: 12px;&quot;&gt;&lt;/font&gt;&lt;font style=&quot;font-size: 12px;&quot;&gt;QR backup&lt;/font&gt;&lt;/font&gt;&lt;/p&gt;" style="rounded=0;html=1;fillColor=#FFB366;strokeColor=#000000;strokeWidth=2;fontColor=default;fontFamily=Helvetica;fontSize=12;whiteSpace=wrap;" parent="1" vertex="1">
          <mxGeometry x="130" y="210" width="110" height="60" as="geometry" />
        </mxCell>
        <mxCell id="5G7XgCikOIznapov901W-55" value="&lt;b&gt;RECOVERY INSTRUCTIONS&lt;br&gt;&lt;/b&gt;Items Description&lt;br&gt;&lt;div&gt;Vault Description&lt;div style=&quot;line-height: 12px;&quot;&gt;Packages Content&lt;br&gt;&amp;nbsp;Packages Distribution&lt;br&gt;Wallet Regeneration Flowchart&lt;br&gt;Transaction Signing Flowchart&lt;br&gt;Guide 1, 2, 3&lt;/div&gt;&lt;/div&gt;" style="rounded=0;html=1;fillColor=#97D077;strokeColor=#000000;strokeWidth=2;fontFamily=Helvetica;fontSize=12;whiteSpace=wrap;" parent="1" vertex="1">
          <mxGeometry x="130" y="280" width="110" height="170" as="geometry" />
        </mxCell>
        <mxCell id="5G7XgCikOIznapov901W-56" value="&lt;span style=&quot;font-size: 12px;&quot;&gt;&lt;b&gt;SIGNING DEVICE&lt;/b&gt;&lt;br&gt;Items Description&lt;/span&gt;&lt;div&gt;Seedsigner&lt;/div&gt;&lt;div&gt;Micro SD Card&lt;/div&gt;&lt;div&gt;Micro USB cable&lt;/div&gt;" style="rounded=0;html=1;fillColor=#CC99FF;strokeColor=#000000;strokeWidth=2;fontFamily=Helvetica;fontSize=12;whiteSpace=wrap;" parent="1" vertex="1">
          <mxGeometry x="130" y="460" width="110" height="80" as="geometry" />
        </mxCell>
        <mxCell id="5G7XgCikOIznapov901W-57" value="&lt;p style=&quot;line-height: 100%;&quot;&gt;&lt;font style=&quot;font-size: 12px;&quot;&gt;&lt;b style=&quot;font-size: 12px;&quot;&gt;WALLET DESCRIPTOR&lt;/b&gt;&lt;br style=&quot;font-size: 12px;&quot;&gt;&lt;font style=&quot;font-size: 12px;&quot;&gt;Items Description&lt;br style=&quot;font-size: 12px;&quot;&gt;&lt;/font&gt;&lt;font style=&quot;font-size: 12px;&quot;&gt;QR backup&lt;/font&gt;&lt;/font&gt;&lt;/p&gt;" style="rounded=0;html=1;fillColor=#FFB366;strokeColor=#000000;strokeWidth=2;fontColor=default;fontFamily=Helvetica;fontSize=12;whiteSpace=wrap;" parent="1" vertex="1">
          <mxGeometry x="249" y="210" width="110.5" height="60" as="geometry" />
        </mxCell>
        <mxCell id="5G7XgCikOIznapov901W-58" value="&lt;b&gt;RECOVERY INSTRUCTIONS&lt;br&gt;&lt;/b&gt;Items Description&lt;br&gt;&lt;div&gt;Vault Description&lt;div style=&quot;line-height: 12px;&quot;&gt;Packages Content&lt;br&gt;&amp;nbsp;Packages Distribution&lt;br&gt;Wallet Regeneration Flowchart&lt;br&gt;Transaction Signing Flowchart&lt;br&gt;Guide 1, 2, 3&lt;/div&gt;&lt;/div&gt;" style="rounded=0;html=1;fillColor=#97D077;strokeColor=#000000;strokeWidth=2;fontFamily=Helvetica;fontSize=12;whiteSpace=wrap;" parent="1" vertex="1">
          <mxGeometry x="250" y="280" width="110" height="170" as="geometry" />
        </mxCell>
        <mxCell id="5G7XgCikOIznapov901W-59" value="&lt;span style=&quot;font-size: 12px;&quot;&gt;&lt;b&gt;SIGNING DEVICE&lt;/b&gt;&lt;br&gt;Items Description&lt;/span&gt;&lt;div&gt;Seedsigner&lt;/div&gt;&lt;div&gt;Micro SD Card&lt;/div&gt;&lt;div&gt;Micro USB cable&lt;/div&gt;" style="rounded=0;html=1;fillColor=#CC99FF;strokeColor=#000000;strokeWidth=2;fontFamily=Helvetica;fontSize=12;whiteSpace=wrap;" parent="1" vertex="1">
          <mxGeometry x="250" y="460" width="110" height="80" as="geometry" />
        </mxCell>
        <mxCell id="5G7XgCikOIznapov901W-60" value="&lt;p style=&quot;line-height: 100%;&quot;&gt;&lt;font style=&quot;font-size: 12px;&quot;&gt;&lt;b style=&quot;font-size: 12px;&quot;&gt;WALLET DESCRIPTOR&lt;/b&gt;&lt;br style=&quot;font-size: 12px;&quot;&gt;&lt;font style=&quot;font-size: 12px;&quot;&gt;Items Description&lt;br style=&quot;font-size: 12px;&quot;&gt;&lt;/font&gt;&lt;font style=&quot;font-size: 12px;&quot;&gt;QR backup&lt;/font&gt;&lt;/font&gt;&lt;/p&gt;" style="rounded=0;html=1;fillColor=#FFB366;strokeColor=#000000;strokeWidth=2;fontColor=default;fontFamily=Helvetica;fontSize=12;whiteSpace=wrap;" parent="1" vertex="1">
          <mxGeometry x="370" y="210" width="110" height="60" as="geometry" />
        </mxCell>
        <mxCell id="5G7XgCikOIznapov901W-61" value="&lt;b&gt;RECOVERY INSTRUCTIONS&lt;br&gt;&lt;/b&gt;Items Description&lt;br&gt;&lt;div&gt;Vault Description&lt;div style=&quot;line-height: 12px;&quot;&gt;Packages Content&lt;br&gt;&amp;nbsp;Packages Distribution&lt;br&gt;Wallet Regeneration Flowchart&lt;br&gt;Transaction Signing Flowchart&lt;br&gt;Guide 1, 2, 3&lt;/div&gt;&lt;/div&gt;" style="rounded=0;html=1;fillColor=#97D077;strokeColor=#000000;strokeWidth=2;fontFamily=Helvetica;fontSize=12;whiteSpace=wrap;" parent="1" vertex="1">
          <mxGeometry x="370" y="280" width="110" height="170" as="geometry" />
        </mxCell>
        <mxCell id="5G7XgCikOIznapov901W-62" value="&lt;p style=&quot;line-height: 100%;&quot;&gt;&lt;font style=&quot;font-size: 12px;&quot;&gt;&lt;b style=&quot;font-size: 12px;&quot;&gt;WALLET DESCRIPTOR&lt;/b&gt;&lt;br style=&quot;font-size: 12px;&quot;&gt;&lt;font style=&quot;font-size: 12px;&quot;&gt;Items Description&lt;br style=&quot;font-size: 12px;&quot;&gt;&lt;/font&gt;&lt;font style=&quot;font-size: 12px;&quot;&gt;QR backup&lt;/font&gt;&lt;/font&gt;&lt;/p&gt;" style="rounded=0;html=1;fillColor=#FFB366;strokeColor=#000000;strokeWidth=2;fontColor=default;fontFamily=Helvetica;fontSize=12;whiteSpace=wrap;" parent="1" vertex="1">
          <mxGeometry x="490" y="210" width="110" height="60" as="geometry" />
        </mxCell>
        <mxCell id="5G7XgCikOIznapov901W-63" value="&lt;b&gt;RECOVERY INSTRUCTIONS&lt;br&gt;&lt;/b&gt;Items Description&lt;br&gt;&lt;div&gt;Vault Description&lt;div style=&quot;line-height: 12px;&quot;&gt;Packages Content&lt;br&gt;&amp;nbsp;Packages Distribution&lt;br&gt;Wallet Regeneration Flowchart&lt;br&gt;Transaction Signing Flowchart&lt;br&gt;Guide 1, 2, 3&lt;/div&gt;&lt;/div&gt;" style="rounded=0;html=1;fillColor=#97D077;strokeColor=#000000;strokeWidth=2;fontFamily=Helvetica;fontSize=12;whiteSpace=wrap;" parent="1" vertex="1">
          <mxGeometry x="490" y="280" width="110" height="170" as="geometry" />
        </mxCell>
        <mxCell id="5G7XgCikOIznapov901W-68" value="&lt;p style=&quot;line-height: 100%;&quot;&gt;&lt;font style=&quot;font-size: 12px;&quot;&gt;&lt;b style=&quot;font-size: 12px;&quot;&gt;WALLET DESCRIPTOR&lt;/b&gt;&lt;br style=&quot;font-size: 12px;&quot;&gt;&lt;font style=&quot;font-size: 12px;&quot;&gt;Items Description&lt;br style=&quot;font-size: 12px;&quot;&gt;&lt;/font&gt;&lt;font style=&quot;font-size: 12px;&quot;&gt;QR backup&lt;/font&gt;&lt;/font&gt;&lt;/p&gt;" style="rounded=0;html=1;fillColor=#FFB366;strokeColor=#000000;strokeWidth=2;fontColor=default;fontFamily=Helvetica;fontSize=12;whiteSpace=wrap;" parent="1" vertex="1">
          <mxGeometry x="610" y="210" width="110" height="60" as="geometry" />
        </mxCell>
        <mxCell id="5G7XgCikOIznapov901W-69" value="&lt;b&gt;RECOVERY INSTRUCTIONS&lt;br&gt;&lt;/b&gt;Items Description&lt;br&gt;&lt;div&gt;Vault Description&lt;div style=&quot;line-height: 12px;&quot;&gt;Packages Content&lt;br&gt;&amp;nbsp;Packages Distribution&lt;br&gt;Wallet Regeneration Flowchart&lt;br&gt;Transaction Signing Flowchart&lt;br&gt;Guide 1, 2, 3&lt;/div&gt;&lt;/div&gt;" style="rounded=0;html=1;fillColor=#97D077;strokeColor=#000000;strokeWidth=2;fontFamily=Helvetica;fontSize=12;whiteSpace=wrap;" parent="1" vertex="1">
          <mxGeometry x="610" y="280" width="110" height="170" as="geometry" />
        </mxCell>
        <mxCell id="5G7XgCikOIznapov901W-70" value="&lt;p style=&quot;line-height: 100%;&quot;&gt;&lt;font style=&quot;font-size: 12px;&quot;&gt;&lt;b style=&quot;font-size: 12px;&quot;&gt;WALLET DESCRIPTOR&lt;/b&gt;&lt;br style=&quot;font-size: 12px;&quot;&gt;&lt;font style=&quot;font-size: 12px;&quot;&gt;Items Description&lt;br style=&quot;font-size: 12px;&quot;&gt;&lt;/font&gt;&lt;font style=&quot;font-size: 12px;&quot;&gt;QR backup&lt;/font&gt;&lt;/font&gt;&lt;/p&gt;" style="rounded=0;html=1;fillColor=#FFB366;strokeColor=#000000;strokeWidth=2;fontColor=default;fontFamily=Helvetica;fontSize=12;whiteSpace=wrap;" parent="1" vertex="1">
          <mxGeometry x="730" y="210" width="110" height="60" as="geometry" />
        </mxCell>
        <mxCell id="5G7XgCikOIznapov901W-71" value="&lt;b&gt;RECOVERY INSTRUCTIONS&lt;br&gt;&lt;/b&gt;Items Description&lt;br&gt;&lt;div&gt;Vault Description&lt;div style=&quot;line-height: 12px;&quot;&gt;Packages Content&lt;br&gt;&amp;nbsp;Packages Distribution&lt;br&gt;Wallet Regeneration Flowchart&lt;br&gt;Transaction Signing Flowchart&lt;br&gt;Guide 1, 2, 3&lt;/div&gt;&lt;/div&gt;" style="rounded=0;html=1;fillColor=#97D077;strokeColor=#000000;strokeWidth=2;fontFamily=Helvetica;fontSize=12;whiteSpace=wrap;" parent="1" vertex="1">
          <mxGeometry x="730" y="280" width="110" height="170" as="geometry" />
        </mxCell>
        <mxCell id="5G7XgCikOIznapov901W-72" value="&lt;font style=&quot;font-size: 12px;&quot; color=&quot;#ffffff&quot;&gt;&lt;b style=&quot;font-size: 12px;&quot;&gt;&lt;font style=&quot;font-size: 12px;&quot;&gt;PASSPHRASE&lt;/font&gt;&lt;/b&gt;&lt;br style=&quot;font-size: 12px;&quot;&gt;&lt;/font&gt;&lt;font style=&quot;font-size: 12px;&quot; color=&quot;#ffffff&quot;&gt;Items Description&lt;br style=&quot;font-size: 12px;&quot;&gt;&lt;/font&gt;&lt;div style=&quot;color: rgb(51, 51, 51); font-size: 12px; line-height: 100%;&quot;&gt;&lt;/div&gt;&lt;div style=&quot;font-size: 12px; line-height: 100%;&quot;&gt;&lt;div style=&quot;font-size: 12px; line-height: 100%;&quot;&gt;&lt;span style=&quot;color: rgb(255, 255, 255); background-color: initial; font-size: 12px;&quot;&gt;&lt;font style=&quot;font-size: 12px;&quot;&gt;Paper backup&lt;/font&gt;&lt;/span&gt;&lt;/div&gt;&lt;font color=&quot;#ffffff&quot; style=&quot;font-size: 12px;&quot;&gt;&lt;div style=&quot;font-size: 12px; line-height: 100%;&quot;&gt;&lt;span style=&quot;background-color: initial; font-size: 12px;&quot;&gt;Metal Backup&lt;/span&gt;&lt;/div&gt;&lt;/font&gt;&lt;/div&gt;" style="rounded=0;html=1;fillColor=#CC0000;strokeColor=default;strokeWidth=2;fontFamily=Helvetica;fontSize=12;whiteSpace=wrap;" parent="1" vertex="1">
          <mxGeometry x="130" y="140" width="110" height="60" as="geometry" />
        </mxCell>
        <mxCell id="5G7XgCikOIznapov901W-73" value="&lt;font style=&quot;font-size: 12px;&quot; color=&quot;#ffffff&quot;&gt;&lt;b style=&quot;font-size: 12px;&quot;&gt;&lt;font style=&quot;font-size: 12px;&quot;&gt;PASSPHRASE&lt;/font&gt;&lt;/b&gt;&lt;br style=&quot;font-size: 12px;&quot;&gt;&lt;/font&gt;&lt;font style=&quot;font-size: 12px;&quot; color=&quot;#ffffff&quot;&gt;Items Description&lt;br style=&quot;font-size: 12px;&quot;&gt;&lt;/font&gt;&lt;div style=&quot;color: rgb(51, 51, 51); font-size: 12px; line-height: 100%;&quot;&gt;&lt;/div&gt;&lt;div style=&quot;font-size: 12px; line-height: 100%;&quot;&gt;&lt;div style=&quot;font-size: 12px; line-height: 100%;&quot;&gt;&lt;span style=&quot;color: rgb(255, 255, 255); background-color: initial; font-size: 12px;&quot;&gt;&lt;font style=&quot;font-size: 12px;&quot;&gt;Paper backup&lt;/font&gt;&lt;/span&gt;&lt;/div&gt;&lt;font color=&quot;#ffffff&quot; style=&quot;font-size: 12px;&quot;&gt;&lt;div style=&quot;font-size: 12px; line-height: 100%;&quot;&gt;&lt;span style=&quot;background-color: initial; font-size: 12px;&quot;&gt;Metal Backup&lt;/span&gt;&lt;/div&gt;&lt;/font&gt;&lt;/div&gt;" style="rounded=0;html=1;fillColor=#CC0000;strokeColor=default;strokeWidth=2;fontFamily=Helvetica;fontSize=12;whiteSpace=wrap;" parent="1" vertex="1">
          <mxGeometry x="249" y="140" width="110.5" height="60" as="geometry" />
        </mxCell>
        <mxCell id="5G7XgCikOIznapov901W-75" value="&lt;font style=&quot;font-size: 25px;&quot;&gt;Recovery Packages Distribution&lt;/font&gt;" style="rounded=0;whiteSpace=wrap;html=1;fontSize=36;strokeWidth=4;verticalAlign=middle;" parent="1" vertex="1">
          <mxGeometry x="400" y="470" width="400" height="60" as="geometry" />
        </mxCell>
        <mxCell id="rXxTzAu9bcd9_-X6MtPc-1" value="&lt;b&gt;RECOVERY INSTRUCTIONS&lt;br&gt;&lt;/b&gt;Items Description&lt;br&gt;&lt;div&gt;Vault Description&lt;div style=&quot;line-height: 12px;&quot;&gt;Packages Content&lt;br&gt;&amp;nbsp;Packages Distribution&lt;br&gt;Wallet Regeneration Flowchart&lt;br&gt;Transaction Signing Flowchart&lt;br&gt;Guide 1, 2, 3&lt;/div&gt;&lt;/div&gt;" style="rounded=0;html=1;fillColor=#97D077;strokeColor=#000000;strokeWidth=2;fontFamily=Helvetica;fontSize=12;whiteSpace=wrap;" vertex="1" parent="1">
          <mxGeometry x="10" y="280" width="110" height="170" as="geometry" />
        </mxCell>
      </root>
    </mxGraphModel>
  </diagram>
</mxfile>
